<?xml version="1.0" encoding="UTF-8" standalone="no"?>
<!-- Generator: Adobe Illustrator 16.2.1, SVG Export Plug-In . SVG Version: 6.00 Build 0)  -->

<svg
   xmlns:dc="http://purl.org/dc/elements/1.1/"
   xmlns:cc="http://creativecommons.org/ns#"
   xmlns:rdf="http://www.w3.org/1999/02/22-rdf-syntax-ns#"
   xmlns:svg="http://www.w3.org/2000/svg"
   xmlns="http://www.w3.org/2000/svg"
   xmlns:sodipodi="http://sodipodi.sourceforge.net/DTD/sodipodi-0.dtd"
   xmlns:inkscape="http://www.inkscape.org/namespaces/inkscape"
   version="1.1"
   id="Layer_1"
   x="0px"
   y="0px"
   width="512px"
   height="512px"
   viewBox="0 0 512 512"
   style="enable-background:new 0 0 512 512;"
   xml:space="preserve"
   inkscape:version="0.91 r"
   sodipodi:docname="break_long.svg"
   inkscape:export-filename="/home/minhaz/downloads/break_long.png"
   inkscape:export-xdpi="4.21875"
   inkscape:export-ydpi="4.21875"><metadata
     id="metadata9"><rdf:RDF><cc:Work
         rdf:about=""><dc:format>image/svg+xml</dc:format><dc:type
           rdf:resource="http://purl.org/dc/dcmitype/StillImage" /><dc:title></dc:title></cc:Work></rdf:RDF></metadata><defs
     id="defs7" /><sodipodi:namedview
     pagecolor="#ffffff"
     bordercolor="#666666"
     borderopacity="1"
     objecttolerance="10"
     gridtolerance="10"
     guidetolerance="10"
     inkscape:pageopacity="0"
     inkscape:pageshadow="2"
     inkscape:window-width="1885"
     inkscape:window-height="1010"
     id="namedview5"
     showgrid="false"
     inkscape:zoom="1"
     inkscape:cx="370.18154"
     inkscape:cy="329.74307"
     inkscape:window-x="34"
     inkscape:window-y="-4"
     inkscape:window-maximized="1"
     inkscape:current-layer="Layer_1" /><path
     d="M383.1,257.4c0.6-5.4,0.9-10,0.9-13.8c0-19.6-3.3-19.7-16-19.7h-75.5c7.3-12,11.5-24.4,11.5-37c0-37.9-57.3-56.4-57.3-88  c0-11.7,5.1-21.3,9.3-34.9c-26.5,7-47.4,33.5-47.4,61.6c0,48.3,56.3,48.7,56.3,84.8c0,4.5-1.4,8.5-2.1,13.5h-55.9  c0.8-3,1.3-6.2,1.3-9.3c0-22.8-39.1-33.9-39.1-52.8c0-7,1-12.8,3.2-21c-12.9,5.1-28.3,20-28.3,36.8c0,26.7,31.9,29.3,36.8,46.3H80  c-12.7,0-16,0.1-16,19.7c0,19.6,7.7,61.3,28.3,111c20.6,49.7,44.4,71.6,61.2,86.2l0.1-0.2c5.1,4.6,11.8,7.3,19.2,7.3h102.4  c7.4,0,14.1-2.7,19.2-7.3l0.1,0.2c9-7.8,20-17.8,31.4-32.9c4.7,2,9.8,3.7,15.4,5c8.4,2,16.8,3,24.8,3c24,0,45.6-9.2,60.8-25.8  c13.4-14.6,21.1-34.4,21.1-54.2C448,297,420,264.5,383.1,257.4z M366.1,384.2c-8.6,0-15.6-1.2-22.1-4.2c4-8,7.9-15.9,11.7-25.1  c10.1-24.4,17.1-47,21.6-65.8c22,4.3,38.7,23.8,38.7,47.1C416,358.9,398.8,384.2,366.1,384.2z"
     id="path3" /><g
     id="g4209"
     transform="matrix(0.4298274,0,0,0.4298274,533.47715,-112.38704)"><circle
       id="path3755"
       style="fill:#ffffff;fill-opacity:1;fill-rule:evenodd;stroke:#000000;stroke-width:26;stroke-miterlimit:4;stroke-dasharray:none;stroke-opacity:1"
       cx="-381.83051"
       cy="585.7627"
       r="265.71429" /><path
       inkscape:connector-curvature="0"
       id="path3757"
       d="m -637.83051,587.47701 100,0"
       style="fill:none;stroke:#000000;stroke-width:23;stroke-linecap:butt;stroke-linejoin:miter;stroke-miterlimit:0;stroke-dasharray:none;stroke-opacity:1" /><path
       style="fill:none;stroke:#000000;stroke-width:23;stroke-linecap:butt;stroke-linejoin:miter;stroke-miterlimit:0;stroke-dasharray:none;stroke-opacity:1"
       d="m -225.83051,587.47701 100,0"
       id="path3759"
       inkscape:connector-curvature="0" /><path
       style="fill:none;stroke:#000000;stroke-width:23;stroke-linecap:butt;stroke-linejoin:miter;stroke-miterlimit:0;stroke-dasharray:none;stroke-opacity:1"
       d="m -381.83051,329.47701 0,100"
       id="path3761"
       inkscape:connector-curvature="0" /><path
       inkscape:connector-curvature="0"
       id="path3763"
       d="m -381.83051,741.47701 0,100"
       style="fill:none;stroke:#000000;stroke-width:23;stroke-linecap:butt;stroke-linejoin:miter;stroke-miterlimit:0;stroke-dasharray:none;stroke-opacity:1" /><path
       style="fill:none;stroke:#000000;stroke-width:20;stroke-linecap:butt;stroke-linejoin:miter;stroke-miterlimit:0;stroke-dasharray:none;stroke-opacity:1"
       d="m -278.86027,764.09672 25.77381,44.64154"
       id="path3765"
       inkscape:connector-curvature="0" /><path
       inkscape:connector-curvature="0"
       id="path3767"
       d="m -508.86027,363.6503 25.77381,44.64154"
       style="fill:none;stroke:#000000;stroke-width:20;stroke-linecap:butt;stroke-linejoin:miter;stroke-miterlimit:0;stroke-dasharray:none;stroke-opacity:1" /><path
       style="fill:none;stroke:#000000;stroke-width:20;stroke-linecap:butt;stroke-linejoin:miter;stroke-miterlimit:0;stroke-dasharray:none;stroke-opacity:1"
       d="m -602.75843,456.74488 44.64155,25.7738"
       id="path3769"
       inkscape:connector-curvature="0" /><path
       inkscape:connector-curvature="0"
       id="path3790"
       d="m -204.50579,687.43846 44.64155,25.7738"
       style="fill:none;stroke:#000000;stroke-width:20;stroke-linecap:butt;stroke-linejoin:miter;stroke-miterlimit:0;stroke-dasharray:none;stroke-opacity:1" /><path
       style="fill:none;stroke:#000000;stroke-width:20;stroke-linecap:butt;stroke-linejoin:miter;stroke-miterlimit:0;stroke-dasharray:none;stroke-opacity:1"
       d="m -204.44265,484.47584 44.64153,-25.7738"
       id="path3792"
       inkscape:connector-curvature="0" /><path
       inkscape:connector-curvature="0"
       id="path3794"
       d="m -604.08551,712.69013 44.64153,-25.7738"
       style="fill:none;stroke:#000000;stroke-width:20;stroke-linecap:butt;stroke-linejoin:miter;stroke-miterlimit:0;stroke-dasharray:none;stroke-opacity:1" /><path
       style="fill:none;stroke:#000000;stroke-width:20;stroke-linecap:butt;stroke-linejoin:miter;stroke-miterlimit:0;stroke-dasharray:none;stroke-opacity:1"
       d="m -279.11593,408.90972 25.77379,-44.64154"
       id="path3796"
       inkscape:connector-curvature="0" /><path
       inkscape:connector-curvature="0"
       id="path3798"
       d="m -509.47307,807.65972 25.77379,-44.64154"
       style="fill:none;stroke:#000000;stroke-width:20;stroke-linecap:butt;stroke-linejoin:miter;stroke-miterlimit:0;stroke-dasharray:none;stroke-opacity:1" /><path
       sodipodi:nodetypes="cc"
       inkscape:connector-curvature="0"
       id="path3802"
       d="m -383.11623,586.47701 66.42858,-178.57143"
       style="fill:none;stroke:#000000;stroke-width:20;stroke-linecap:square;stroke-linejoin:miter;stroke-miterlimit:0;stroke-dasharray:none;stroke-opacity:1" /><path
       sodipodi:nodetypes="cc"
       inkscape:connector-curvature="0"
       id="path3804"
       d="M -298.68766,643.47701 -381.5448,586.33415"
       style="fill:none;stroke:#000000;stroke-width:23;stroke-linecap:square;stroke-linejoin:miter;stroke-miterlimit:0;stroke-dasharray:none;stroke-opacity:1" /></g></svg>