<?xml version="1.0" encoding="UTF-8" standalone="no"?>
<!-- Generator: Adobe Illustrator 14.0.0, SVG Export Plug-In  -->

<svg
   xmlns:dc="http://purl.org/dc/elements/1.1/"
   xmlns:cc="http://creativecommons.org/ns#"
   xmlns:rdf="http://www.w3.org/1999/02/22-rdf-syntax-ns#"
   xmlns:svg="http://www.w3.org/2000/svg"
   xmlns="http://www.w3.org/2000/svg"
   xmlns:sodipodi="http://sodipodi.sourceforge.net/DTD/sodipodi-0.dtd"
   xmlns:inkscape="http://www.inkscape.org/namespaces/inkscape"
   version="1.1"
   x="0px"
   y="0px"
   width="100px"
   height="100px"
   viewBox="-10.6 -9.6 100 100"
   enable-background="new -10.6 -9.6 100 100"
   xml:space="preserve"
   id="svg2"
   inkscape:version="0.91 r"
   sodipodi:docname="quit.svg"
   inkscape:export-filename="/home/minhaz/downloads/quit.png"
   inkscape:export-xdpi="21.6"
   inkscape:export-ydpi="21.6"><metadata
     id="metadata10"><rdf:RDF><cc:Work
         rdf:about=""><dc:format>image/svg+xml</dc:format><dc:type
           rdf:resource="http://purl.org/dc/dcmitype/StillImage" /></cc:Work></rdf:RDF></metadata><sodipodi:namedview
     pagecolor="#ffffff"
     bordercolor="#666666"
     borderopacity="1"
     objecttolerance="10"
     gridtolerance="10"
     guidetolerance="10"
     inkscape:pageopacity="0"
     inkscape:pageshadow="2"
     inkscape:window-width="1885"
     inkscape:window-height="1010"
     id="namedview8"
     showgrid="false"
     inkscape:zoom="2.36"
     inkscape:cx="50"
     inkscape:cy="50"
     inkscape:window-x="34"
     inkscape:window-y="-4"
     inkscape:window-maximized="1"
     inkscape:current-layer="svg2" /><defs
     id="defs4" /><path
     stroke="#FFFFFF"
     d="M39.4,0.5C17.9,0.5,0.5,17.9,0.5,39.4c0,21.5,17.4,38.9,38.9,38.9c21.5,0,38.9-17.4,38.9-38.9  C78.2,17.9,60.9,0.5,39.4,0.5z M20.6,20.6c5-5,11.7-7.8,18.8-7.8c5.5,0,10.7,1.7,15.1,4.8L15.1,50.2c-1.5-3.3-2.3-7.1-2.3-10.9  C12.8,32.2,15.6,25.6,20.6,20.6z M58.2,58.2c-5,5-11.7,7.8-18.8,7.8c-6.2,0-12.1-2.1-16.8-5.9l40.1-33.4c2.1,3.9,3.3,8.2,3.3,12.8  C65.9,46.5,63.2,53.2,58.2,58.2z"
     id="path6" /></svg>